<svg xmlns="http://www.w3.org/2000/svg" xmlns:xlink="http://www.w3.org/1999/xlink" contentStyleType="text/css" data-diagram-type="CLASS" height="842px" preserveAspectRatio="none" style="width:2347px;height:842px;background:#F9F9F9;" version="1.1" viewBox="0 0 2347 842" width="2347px" zoomAndPan="magnify"><defs/><g><rect fill="#F9F9F9" height="842" style="stroke:none;stroke-width:1;" width="2347" x="0" y="0"/><!--cluster Interfaces--><g class="cluster" data-entity="Interfaces" data-source-line="8" data-uid="ent0002" id="cluster_Interfaces"><path d="M281.5,536.01 L364.4326,536.01 A5.25,5.25 0 0 1 367.9326,539.51 L374.9326,562.3069 L2228.5,562.3069 A3.5,3.5 0 0 1 2232,565.8069 L2232,655.81 A3.5,3.5 0 0 1 2228.5,659.31 L281.5,659.31 A3.5,3.5 0 0 1 278,655.81 L278,539.51 A3.5,3.5 0 0 1 281.5,536.01 " fill="none" style="stroke:#393939;stroke-width:1;"/><line style="stroke:#393939;stroke-width:1;" x1="278" x2="374.9326" y1="562.3069" y2="562.3069"/><text fill="#000000" font-family="sans-serif" font-size="14" font-weight="bold" lengthAdjust="spacing" textLength="79.9326" x="284" y="553.0051">Interfaces</text></g><!--cluster Abstract Class--><g class="cluster" data-entity="Abstract Class" data-source-line="27" data-uid="ent0007" id="cluster_Abstract Class"><path d="M9.5,692.31 L125.7852,692.31 A5.25,5.25 0 0 1 129.2852,695.81 L136.2852,718.6069 L552.5,718.6069 A3.5,3.5 0 0 1 556,722.1069 L556,832.4 A3.5,3.5 0 0 1 552.5,835.9 L9.5,835.9 A3.5,3.5 0 0 1 6,832.4 L6,695.81 A3.5,3.5 0 0 1 9.5,692.31 " fill="none" style="stroke:#393939;stroke-width:1;"/><line style="stroke:#393939;stroke-width:1;" x1="6" x2="136.2852" y1="718.6069" y2="718.6069"/><text fill="#000000" font-family="sans-serif" font-size="14" font-weight="bold" lengthAdjust="spacing" textLength="113.2852" x="12" y="709.3051">Abstract Class</text></g><!--cluster Factory Classes--><g class="cluster" data-entity="Factory Classes" data-source-line="35" data-uid="ent0009" id="cluster_Factory Classes"><path d="M543.5,359.71 L670.0391,359.71 A5.25,5.25 0 0 1 673.5391,363.21 L680.5391,386.0069 L1377.5,386.0069 A3.5,3.5 0 0 1 1381,389.5069 L1381,479.51 A3.5,3.5 0 0 1 1377.5,483.01 L543.5,483.01 A3.5,3.5 0 0 1 540,479.51 L540,363.21 A3.5,3.5 0 0 1 543.5,359.71 " fill="none" style="stroke:#393939;stroke-width:1;"/><line style="stroke:#393939;stroke-width:1;" x1="540" x2="680.5391" y1="386.0069" y2="386.0069"/><text fill="#000000" font-family="sans-serif" font-size="14" font-weight="bold" lengthAdjust="spacing" textLength="123.5391" x="546" y="376.7051">Factory Classes</text></g><!--cluster Helper Classes--><g class="cluster" data-entity="Helper Classes" data-source-line="46" data-uid="ent0012" id="cluster_Helper Classes"><path d="M796.5,182.3 L915.8203,182.3 A5.25,5.25 0 0 1 919.3203,185.8 L926.3203,208.5969 L1509.5,208.5969 A3.5,3.5 0 0 1 1513,212.0969 L1513,302.1 A3.5,3.5 0 0 1 1509.5,305.6 L796.5,305.6 A3.5,3.5 0 0 1 793,302.1 L793,185.8 A3.5,3.5 0 0 1 796.5,182.3 " fill="none" style="stroke:#393939;stroke-width:1;"/><line style="stroke:#393939;stroke-width:1;" x1="793" x2="926.3203" y1="208.5969" y2="208.5969"/><text fill="#000000" font-family="sans-serif" font-size="14" font-weight="bold" lengthAdjust="spacing" textLength="116.3203" x="799" y="199.2951">Helper Classes</text></g><!--cluster Utility Classes--><g class="cluster" data-entity="Utility Classes" data-source-line="53" data-uid="ent0014" id="cluster_Utility Classes"><path d="M1551.5,6 L1666.6641,6 A5.25,5.25 0 0 1 1670.1641,9.5 L1677.1641,32.2969 L1986.5,32.2969 A3.5,3.5 0 0 1 1990,35.7969 L1990,125.8 A3.5,3.5 0 0 1 1986.5,129.3 L1551.5,129.3 A3.5,3.5 0 0 1 1548,125.8 L1548,9.5 A3.5,3.5 0 0 1 1551.5,6 " fill="none" style="stroke:#393939;stroke-width:1;"/><line style="stroke:#393939;stroke-width:1;" x1="1548" x2="1677.1641" y1="32.2969" y2="32.2969"/><text fill="#000000" font-family="sans-serif" font-size="14" font-weight="bold" lengthAdjust="spacing" textLength="112.1641" x="1554" y="22.9951">Utility Classes</text></g><!--cluster Implementation Classes--><g class="cluster" data-entity="Implementation Classes" data-source-line="60" data-uid="ent0016" id="cluster_Implementation Classes"><path d="M733.5,692.31 L925.7666,692.31 A5.25,5.25 0 0 1 929.2666,695.81 L936.2666,718.6069 L1784.5,718.6069 A3.5,3.5 0 0 1 1788,722.1069 L1788,832.4 A3.5,3.5 0 0 1 1784.5,835.9 L733.5,835.9 A3.5,3.5 0 0 1 730,832.4 L730,695.81 A3.5,3.5 0 0 1 733.5,692.31 " fill="none" style="stroke:#393939;stroke-width:1;"/><line style="stroke:#393939;stroke-width:1;" x1="730" x2="936.2666" y1="718.6069" y2="718.6069"/><text fill="#000000" font-family="sans-serif" font-size="14" font-weight="bold" lengthAdjust="spacing" textLength="189.2666" x="736" y="709.3051">Implementation Classes</text></g><!--class IDataFetcher--><g class="entity" data-entity="IDataFetcher" data-source-line="9" data-uid="ent0003" id="entity_IDataFetcher"><rect fill="#F1F1F1" height="68.2969" rx="3.5" ry="3.5" style="stroke:#181818;stroke-width:0.5;" width="455.4072" x="294.3" y="575.01"/><ellipse cx="470.4279" cy="591.01" fill="#B1B1B1" rx="11" ry="11" style="stroke:#181818;stroke-width:1;"/><path d="M466.3498,586.7756 L466.3498,584.6194 L473.7404,584.6194 L473.7404,586.7756 L471.2717,586.7756 L471.2717,594.8538 L473.7404,594.8538 L473.7404,597.01 L466.3498,597.01 L466.3498,594.8538 L468.8186,594.8538 L468.8186,586.7756 L466.3498,586.7756 Z " fill="#000000"/><text fill="#000000" font-family="sans-serif" font-size="14" font-style="italic" lengthAdjust="spacing" textLength="90.6514" x="492.9279" y="595.8567">IDataFetcher</text><line style="stroke:#181818;stroke-width:0.5;" x1="295.3" x2="748.7072" y1="607.01" y2="607.01"/><line style="stroke:#181818;stroke-width:0.5;" x1="295.3" x2="748.7072" y1="615.01" y2="615.01"/><text fill="#000000" font-family="sans-serif" font-size="14" lengthAdjust="spacing" textLength="439.4072" x="302.3" y="634.0051">+fetchData(orchestrationItemId: String): Map&lt;String, Object&gt;</text></g><!--class IDataValidator--><g class="entity" data-entity="IDataValidator" data-source-line="13" data-uid="ent0004" id="entity_IDataValidator"><rect fill="#F1F1F1" height="68.2969" rx="3.5" ry="3.5" style="stroke:#181818;stroke-width:0.5;" width="417.1602" x="784.42" y="575.01"/><ellipse cx="936.3658" cy="591.01" fill="#B1B1B1" rx="11" ry="11" style="stroke:#181818;stroke-width:1;"/><path d="M932.2877,586.7756 L932.2877,584.6194 L939.6783,584.6194 L939.6783,586.7756 L937.2096,586.7756 L937.2096,594.8538 L939.6783,594.8538 L939.6783,597.01 L932.2877,597.01 L932.2877,594.8538 L934.7564,594.8538 L934.7564,586.7756 L932.2877,586.7756 Z " fill="#000000"/><text fill="#000000" font-family="sans-serif" font-size="14" font-style="italic" lengthAdjust="spacing" textLength="100.7686" x="958.8658" y="595.8567">IDataValidator</text><line style="stroke:#181818;stroke-width:0.5;" x1="785.42" x2="1200.5802" y1="607.01" y2="607.01"/><line style="stroke:#181818;stroke-width:0.5;" x1="785.42" x2="1200.5802" y1="615.01" y2="615.01"/><text fill="#000000" font-family="sans-serif" font-size="14" lengthAdjust="spacing" textLength="401.1602" x="792.42" y="634.0051">+validateData(data: Map&lt;String, Object&gt;): List&lt;String&gt;</text></g><!--class IRequestBodyPreparer--><g class="entity" data-entity="IRequestBodyPreparer" data-source-line="17" data-uid="ent0005" id="entity_IRequestBodyPreparer"><rect fill="#F1F1F1" height="68.2969" rx="3.5" ry="3.5" style="stroke:#181818;stroke-width:0.5;" width="535.0186" x="1236.49" y="575.01"/><ellipse cx="1419.0642" cy="591.01" fill="#B1B1B1" rx="11" ry="11" style="stroke:#181818;stroke-width:1;"/><path d="M1414.9861,586.7756 L1414.9861,584.6194 L1422.3767,584.6194 L1422.3767,586.7756 L1419.908,586.7756 L1419.908,594.8538 L1422.3767,594.8538 L1422.3767,597.01 L1414.9861,597.01 L1414.9861,594.8538 L1417.4548,594.8538 L1417.4548,586.7756 L1414.9861,586.7756 Z " fill="#000000"/><text fill="#000000" font-family="sans-serif" font-size="14" font-style="italic" lengthAdjust="spacing" textLength="157.3701" x="1441.5642" y="595.8567">IRequestBodyPreparer</text><line style="stroke:#181818;stroke-width:0.5;" x1="1237.49" x2="1770.5086" y1="607.01" y2="607.01"/><line style="stroke:#181818;stroke-width:0.5;" x1="1237.49" x2="1770.5086" y1="615.01" y2="615.01"/><text fill="#000000" font-family="sans-serif" font-size="14" lengthAdjust="spacing" textLength="519.0186" x="1244.49" y="634.0051">+prepareRequestBody(data: Map&lt;String, Object&gt;): Map&lt;String, Object&gt;</text></g><!--class Callable--><g class="entity" data-entity="Callable" data-source-line="21" data-uid="ent0006" id="entity_Callable"><rect fill="#F1F1F1" height="68.2969" rx="3.5" ry="3.5" style="stroke:#181818;stroke-width:0.5;" width="409.3809" x="1806.31" y="575.01"/><ellipse cx="1976.6992" cy="591.01" fill="#B1B1B1" rx="11" ry="11" style="stroke:#181818;stroke-width:1;"/><path d="M1972.621,586.7756 L1972.621,584.6194 L1980.0117,584.6194 L1980.0117,586.7756 L1977.5429,586.7756 L1977.5429,594.8538 L1980.0117,594.8538 L1980.0117,597.01 L1972.621,597.01 L1972.621,594.8538 L1975.0898,594.8538 L1975.0898,586.7756 L1972.621,586.7756 Z " fill="#000000"/><text fill="#000000" font-family="sans-serif" font-size="14" font-style="italic" lengthAdjust="spacing" textLength="56.1025" x="1999.1992" y="595.8567">Callable</text><line style="stroke:#181818;stroke-width:0.5;" x1="1807.31" x2="2214.6909" y1="607.01" y2="607.01"/><line style="stroke:#181818;stroke-width:0.5;" x1="1807.31" x2="2214.6909" y1="615.01" y2="615.01"/><text fill="#000000" font-family="sans-serif" font-size="14" lengthAdjust="spacing" textLength="393.3809" x="1814.31" y="634.0051">+call(action: String, args: Map&lt;String, Object&gt;): Object</text></g><!--class CommonDataFetcher--><g class="entity" data-entity="CommonDataFetcher" data-source-line="28" data-uid="ent0008" id="entity_CommonDataFetcher"><rect fill="#F1F1F1" height="88.5938" rx="3.5" ry="3.5" style="stroke:#181818;stroke-width:0.5;" width="518.4619" x="21.77" y="731.31"/><ellipse cx="199.9624" cy="747.31" fill="#CDCDCD" rx="11" ry="11" style="stroke:#181818;stroke-width:1;"/><path d="M200.0718,742.6538 L198.9155,747.7319 L201.2436,747.7319 L200.0718,742.6538 Z M198.5874,740.4194 L201.5718,740.4194 L204.9311,752.81 L202.478,752.81 L201.7124,749.7475 L198.4311,749.7475 L197.6811,752.81 L195.2436,752.81 L198.5874,740.4194 Z " fill="#000000"/><text fill="#000000" font-family="sans-serif" font-size="14" font-style="italic" lengthAdjust="spacing" textLength="149.5771" x="222.4624" y="752.1567">CommonDataFetcher</text><line style="stroke:#181818;stroke-width:0.5;" x1="22.77" x2="539.2319" y1="763.31" y2="763.31"/><line style="stroke:#181818;stroke-width:0.5;" x1="22.77" x2="539.2319" y1="771.31" y2="771.31"/><text fill="#000000" font-family="sans-serif" font-size="14" font-style="italic" lengthAdjust="spacing" textLength="439.4072" x="29.77" y="790.3051">+fetchData(orchestrationItemId: String): Map&lt;String, Object&gt;</text><text fill="#000000" font-family="sans-serif" font-size="14" lengthAdjust="spacing" textLength="502.4619" x="29.77" y="810.602">+fetchCommonData(orchestrationItemId: String): Map&lt;String, Object&gt;</text></g><!--class RequestBodyPreparerFactory--><g class="entity" data-entity="RequestBodyPreparerFactory" data-source-line="36" data-uid="ent0010" id="entity_RequestBodyPreparerFactory"><rect fill="#F1F1F1" height="68.2969" rx="3.5" ry="3.5" style="stroke:#181818;stroke-width:0.5;" width="424.4814" x="940.76" y="398.71"/><ellipse cx="1043.9177" cy="414.71" fill="#C2C2C2" rx="11" ry="11" style="stroke:#181818;stroke-width:1;"/><path d="M1046.8865,420.3506 Q1046.3083,420.6475 1045.6677,420.7881 Q1045.0271,420.9444 1044.324,420.9444 Q1041.824,420.9444 1040.4958,419.3038 Q1039.1833,417.6475 1039.1833,414.5225 Q1039.1833,411.3975 1040.4958,409.7413 Q1041.824,408.085 1044.324,408.085 Q1045.0271,408.085 1045.6677,408.2413 Q1046.324,408.3975 1046.8865,408.6944 L1046.8865,411.4131 Q1046.2615,410.835 1045.6677,410.5694 Q1045.074,410.2881 1044.449,410.2881 Q1043.1052,410.2881 1042.4177,411.3663 Q1041.7302,412.4288 1041.7302,414.5225 Q1041.7302,416.6163 1042.4177,417.6944 Q1043.1052,418.7569 1044.449,418.7569 Q1045.074,418.7569 1045.6677,418.4913 Q1046.2615,418.21 1046.8865,417.6319 L1046.8865,420.3506 Z " fill="#000000"/><text fill="#000000" font-family="sans-serif" font-size="14" lengthAdjust="spacing" textLength="205.666" x="1066.4177" y="419.5567">RequestBodyPreparerFactory</text><line style="stroke:#181818;stroke-width:0.5;" x1="941.76" x2="1364.2414" y1="430.71" y2="430.71"/><line style="stroke:#181818;stroke-width:0.5;" x1="941.76" x2="1364.2414" y1="438.71" y2="438.71"/><text fill="#000000" font-family="sans-serif" font-size="14" lengthAdjust="spacing" text-decoration="underline" textLength="408.4814" x="948.76" y="457.7051">+getPreparer(systemType: String): IRequestBodyPreparer</text></g><!--class DataFetcherFactory--><g class="entity" data-entity="DataFetcherFactory" data-source-line="40" data-uid="ent0011" id="entity_DataFetcherFactory"><rect fill="#F1F1F1" height="68.2969" rx="3.5" ry="3.5" style="stroke:#181818;stroke-width:0.5;" width="350.4551" x="555.77" y="398.71"/><ellipse cx="655.2739" cy="414.71" fill="#C2C2C2" rx="11" ry="11" style="stroke:#181818;stroke-width:1;"/><path d="M658.2427,420.3506 Q657.6645,420.6475 657.0239,420.7881 Q656.3833,420.9444 655.6802,420.9444 Q653.1802,420.9444 651.852,419.3038 Q650.5395,417.6475 650.5395,414.5225 Q650.5395,411.3975 651.852,409.7413 Q653.1802,408.085 655.6802,408.085 Q656.3833,408.085 657.0239,408.2413 Q657.6802,408.3975 658.2427,408.6944 L658.2427,411.4131 Q657.6177,410.835 657.0239,410.5694 Q656.4302,410.2881 655.8052,410.2881 Q654.4614,410.2881 653.7739,411.3663 Q653.0864,412.4288 653.0864,414.5225 Q653.0864,416.6163 653.7739,417.6944 Q654.4614,418.7569 655.8052,418.7569 Q656.4302,418.7569 657.0239,418.4913 Q657.6177,418.21 658.2427,417.6319 L658.2427,420.3506 Z " fill="#000000"/><text fill="#000000" font-family="sans-serif" font-size="14" lengthAdjust="spacing" textLength="138.9473" x="677.7739" y="419.5567">DataFetcherFactory</text><line style="stroke:#181818;stroke-width:0.5;" x1="556.77" x2="905.2251" y1="430.71" y2="430.71"/><line style="stroke:#181818;stroke-width:0.5;" x1="556.77" x2="905.2251" y1="438.71" y2="438.71"/><text fill="#000000" font-family="sans-serif" font-size="14" lengthAdjust="spacing" text-decoration="underline" textLength="334.4551" x="563.77" y="457.7051">+getFetcher(systemType: String): IDataFetcher</text></g><!--class SystemIntegrationHelper--><g class="entity" data-entity="SystemIntegrationHelper" data-source-line="47" data-uid="ent0013" id="entity_SystemIntegrationHelper"><rect fill="#F1F1F1" height="68.2969" rx="3.5" ry="3.5" style="stroke:#181818;stroke-width:0.5;" width="687.4395" x="809.28" y="221.3"/><ellipse cx="1058.9319" cy="237.3" fill="#C2C2C2" rx="11" ry="11" style="stroke:#181818;stroke-width:1;"/><path d="M1061.9006,242.9406 Q1061.3225,243.2375 1060.6819,243.3781 Q1060.0412,243.5344 1059.3381,243.5344 Q1056.8381,243.5344 1055.51,241.8937 Q1054.1975,240.2375 1054.1975,237.1125 Q1054.1975,233.9875 1055.51,232.3312 Q1056.8381,230.675 1059.3381,230.675 Q1060.0412,230.675 1060.6819,230.8312 Q1061.3381,230.9875 1061.9006,231.2844 L1061.9006,234.0031 Q1061.2756,233.425 1060.6819,233.1594 Q1060.0881,232.8781 1059.4631,232.8781 Q1058.1194,232.8781 1057.4319,233.9562 Q1056.7444,235.0187 1056.7444,237.1125 Q1056.7444,239.2062 1057.4319,240.2844 Q1058.1194,241.3469 1059.4631,241.3469 Q1060.0881,241.3469 1060.6819,241.0812 Q1061.2756,240.8 1061.9006,240.2219 L1061.9006,242.9406 Z " fill="#000000"/><text fill="#000000" font-family="sans-serif" font-size="14" lengthAdjust="spacing" textLength="175.6357" x="1081.4319" y="242.1467">SystemIntegrationHelper</text><line style="stroke:#181818;stroke-width:0.5;" x1="810.28" x2="1495.7195" y1="253.3" y2="253.3"/><line style="stroke:#181818;stroke-width:0.5;" x1="810.28" x2="1495.7195" y1="261.3" y2="261.3"/><text fill="#000000" font-family="sans-serif" font-size="14" lengthAdjust="spacing" text-decoration="underline" textLength="671.4395" x="817.28" y="280.2951">+generateRequestBody(systemType: String, orchestrationItemId: String): Map&lt;String, Object&gt;</text></g><!--class IntegrationProcedureUtility--><g class="entity" data-entity="IntegrationProcedureUtility" data-source-line="54" data-uid="ent0015" id="entity_IntegrationProcedureUtility"><rect fill="#F1F1F1" height="68.2969" rx="3.5" ry="3.5" style="stroke:#181818;stroke-width:0.5;" width="409.3809" x="1564.31" y="45"/><ellipse cx="1667.9872" cy="61" fill="#C2C2C2" rx="11" ry="11" style="stroke:#181818;stroke-width:1;"/><path d="M1670.956,66.6406 Q1670.3779,66.9375 1669.7372,67.0781 Q1669.0966,67.2344 1668.3935,67.2344 Q1665.8935,67.2344 1664.5654,65.5938 Q1663.2529,63.9375 1663.2529,60.8125 Q1663.2529,57.6875 1664.5654,56.0313 Q1665.8935,54.375 1668.3935,54.375 Q1669.0966,54.375 1669.7372,54.5313 Q1670.3935,54.6875 1670.956,54.9844 L1670.956,57.7031 Q1670.331,57.125 1669.7372,56.8594 Q1669.1435,56.5781 1668.5185,56.5781 Q1667.1747,56.5781 1666.4872,57.6563 Q1665.7997,58.7188 1665.7997,60.8125 Q1665.7997,62.9063 1666.4872,63.9844 Q1667.1747,65.0469 1668.5185,65.0469 Q1669.1435,65.0469 1669.7372,64.7813 Q1670.331,64.5 1670.956,63.9219 L1670.956,66.6406 Z " fill="#000000"/><text fill="#000000" font-family="sans-serif" font-size="14" lengthAdjust="spacing" textLength="189.5264" x="1690.4872" y="65.8467">IntegrationProcedureUtility</text><line style="stroke:#181818;stroke-width:0.5;" x1="1565.31" x2="1972.6909" y1="77" y2="77"/><line style="stroke:#181818;stroke-width:0.5;" x1="1565.31" x2="1972.6909" y1="85" y2="85"/><text fill="#000000" font-family="sans-serif" font-size="14" lengthAdjust="spacing" textLength="393.3809" x="1572.31" y="103.9951">+call(action: String, args: Map&lt;String, Object&gt;): Object</text></g><!--class SAPDataFetcher--><g class="entity" data-entity="SAPDataFetcher" data-source-line="61" data-uid="ent0017" id="entity_SAPDataFetcher"><rect fill="#F1F1F1" height="68.2969" rx="3.5" ry="3.5" style="stroke:#181818;stroke-width:0.5;" width="455.4072" x="746.3" y="741.45"/><ellipse cx="911.0393" cy="757.45" fill="#C2C2C2" rx="11" ry="11" style="stroke:#181818;stroke-width:1;"/><path d="M914.008,763.0906 Q913.4299,763.3875 912.7893,763.5281 Q912.1486,763.6844 911.4455,763.6844 Q908.9455,763.6844 907.6174,762.0437 Q906.3049,760.3875 906.3049,757.2625 Q906.3049,754.1375 907.6174,752.4812 Q908.9455,750.825 911.4455,750.825 Q912.1486,750.825 912.7893,750.9812 Q913.4455,751.1375 914.008,751.4344 L914.008,754.1531 Q913.383,753.575 912.7893,753.3094 Q912.1955,753.0281 911.5705,753.0281 Q910.2268,753.0281 909.5393,754.1062 Q908.8518,755.1687 908.8518,757.2625 Q908.8518,759.3562 909.5393,760.4344 Q910.2268,761.4969 911.5705,761.4969 Q912.1955,761.4969 912.7893,761.2312 Q913.383,760.95 914.008,760.3719 L914.008,763.0906 Z " fill="#000000"/><text fill="#000000" font-family="sans-serif" font-size="14" lengthAdjust="spacing" textLength="113.4287" x="933.5393" y="762.2967">SAPDataFetcher</text><line style="stroke:#181818;stroke-width:0.5;" x1="747.3" x2="1200.7072" y1="773.45" y2="773.45"/><line style="stroke:#181818;stroke-width:0.5;" x1="747.3" x2="1200.7072" y1="781.45" y2="781.45"/><text fill="#000000" font-family="sans-serif" font-size="14" lengthAdjust="spacing" textLength="439.4072" x="754.3" y="800.4451">+fetchData(orchestrationItemId: String): Map&lt;String, Object&gt;</text></g><!--class SAPRequestBodyPreparer--><g class="entity" data-entity="SAPRequestBodyPreparer" data-source-line="65" data-uid="ent0018" id="entity_SAPRequestBodyPreparer"><rect fill="#F1F1F1" height="88.5938" rx="3.5" ry="3.5" style="stroke:#181818;stroke-width:0.5;" width="535.0186" x="1236.49" y="731.31"/><ellipse cx="1407.6755" cy="747.31" fill="#C2C2C2" rx="11" ry="11" style="stroke:#181818;stroke-width:1;"/><path d="M1410.6443,752.9506 Q1410.0662,753.2475 1409.4255,753.3881 Q1408.7849,753.5444 1408.0818,753.5444 Q1405.5818,753.5444 1404.2537,751.9038 Q1402.9412,750.2475 1402.9412,747.1225 Q1402.9412,743.9975 1404.2537,742.3413 Q1405.5818,740.685 1408.0818,740.685 Q1408.7849,740.685 1409.4255,740.8413 Q1410.0818,740.9975 1410.6443,741.2944 L1410.6443,744.0131 Q1410.0193,743.435 1409.4255,743.1694 Q1408.8318,742.8881 1408.2068,742.8881 Q1406.863,742.8881 1406.1755,743.9663 Q1405.488,745.0288 1405.488,747.1225 Q1405.488,749.2163 1406.1755,750.2944 Q1406.863,751.3569 1408.2068,751.3569 Q1408.8318,751.3569 1409.4255,751.0913 Q1410.0193,750.81 1410.6443,750.2319 L1410.6443,752.9506 Z " fill="#000000"/><text fill="#000000" font-family="sans-serif" font-size="14" lengthAdjust="spacing" textLength="180.1475" x="1430.1755" y="752.1567">SAPRequestBodyPreparer</text><line style="stroke:#181818;stroke-width:0.5;" x1="1237.49" x2="1770.5086" y1="763.31" y2="763.31"/><line style="stroke:#181818;stroke-width:0.5;" x1="1237.49" x2="1770.5086" y1="771.31" y2="771.31"/><text fill="#000000" font-family="sans-serif" font-size="14" lengthAdjust="spacing" textLength="519.0186" x="1244.49" y="790.3051">+prepareRequestBody(data: Map&lt;String, Object&gt;): Map&lt;String, Object&gt;</text><text fill="#000000" font-family="sans-serif" font-size="14" lengthAdjust="spacing" textLength="401.1602" x="1244.49" y="810.602">+validateData(data: Map&lt;String, Object&gt;): List&lt;String&gt;</text></g><g class="entity" data-entity="GMN30" data-source-line="89" data-uid="ent0031" id="entity_GMN30"><path d="M1696.49,414.23 L1696.49,451.4956 A3.5,3.5 0 0 0 1699.99,454.9956 L1954.0149,454.9956 A3.5,3.5 0 0 0 1957.5149,451.4956 L1957.5149,420.73 L1947.5149,410.73 L1699.99,410.73 A3.5,3.5 0 0 0 1696.49,414.23 " fill="#E5E5E5" style="stroke:#191919;stroke-width:1.5;"/><path d="M1947.5149,410.73 L1947.5149,418.98 A1.75,1.75 0 0 0 1949.2649,420.73 L1957.5149,420.73 L1947.5149,410.73 " fill="#E5E5E5" style="stroke:#191919;stroke-width:1;"/><text fill="#191919" font-family="sans-serif" font-size="13" lengthAdjust="spacing" textLength="236.0249" x="1704.49" y="429.7969">Uses SystemIntegrationConfig__mdt</text><text fill="#191919" font-family="sans-serif" font-size="13" lengthAdjust="spacing" textLength="198.688" x="1704.49" y="444.9297">to instantiate preparer classes</text></g><g class="entity" data-entity="GMN33" data-source-line="94" data-uid="ent0034" id="entity_GMN33"><path d="M1400.49,414.23 L1400.49,451.4956 A3.5,3.5 0 0 0 1403.99,454.9956 L1658.0149,454.9956 A3.5,3.5 0 0 0 1661.5149,451.4956 L1661.5149,420.73 L1651.5149,410.73 L1403.99,410.73 A3.5,3.5 0 0 0 1400.49,414.23 " fill="#E5E5E5" style="stroke:#191919;stroke-width:1.5;"/><path d="M1651.5149,410.73 L1651.5149,418.98 A1.75,1.75 0 0 0 1653.2649,420.73 L1661.5149,420.73 L1651.5149,410.73 " fill="#E5E5E5" style="stroke:#191919;stroke-width:1;"/><text fill="#191919" font-family="sans-serif" font-size="13" lengthAdjust="spacing" textLength="236.0249" x="1408.49" y="429.7969">Uses SystemIntegrationConfig__mdt</text><text fill="#191919" font-family="sans-serif" font-size="13" lengthAdjust="spacing" textLength="188.5889" x="1408.49" y="444.9297">to instantiate fetcher classes</text></g><g class="entity" data-entity="GMN36" data-source-line="99" data-uid="ent0037" id="entity_GMN36"><path d="M1532.11,221.68 L1532.11,251.45 L1496.98,255.45 L1532.11,259.45 L1532.11,289.2112 A3.5,3.5 0 0 0 1535.61,292.7112 L1848.3888,292.7112 A3.5,3.5 0 0 0 1851.8888,289.2112 L1851.8888,228.18 L1841.8888,218.18 L1535.61,218.18 A3.5,3.5 0 0 0 1532.11,221.68 " fill="#E5E5E5" style="stroke:#191919;stroke-width:1.5;"/><path d="M1841.8888,218.18 L1841.8888,226.43 A1.75,1.75 0 0 0 1843.6388,228.18 L1851.8888,228.18 L1841.8888,218.18 " fill="#E5E5E5" style="stroke:#191919;stroke-width:1.5;"/><text fill="#191919" font-family="sans-serif" font-size="13" lengthAdjust="spacing" textLength="88.3911" x="1540.11" y="237.2469">Orchestrates:</text><text fill="#191919" font-family="sans-serif" font-size="13" lengthAdjust="spacing" textLength="197.6216" x="1540.11" y="252.3797">1. Fetch data via IDataFetcher</text><text fill="#191919" font-family="sans-serif" font-size="13" lengthAdjust="spacing" textLength="284.3052" x="1540.11" y="267.5125">2. Validate via IDataValidator (if applicable)</text><text fill="#191919" font-family="sans-serif" font-size="13" lengthAdjust="spacing" textLength="294.7788" x="1540.11" y="282.6453">3. Prepare request via IRequestBodyPreparer</text></g><g class="entity" data-entity="GMN39" data-source-line="106" data-uid="ent0040" id="entity_GMN39"><path d="M2008.39,60.52 L2008.39,75.15 L1973.9,79.15 L2008.39,83.15 L2008.39,97.7856 A3.5,3.5 0 0 0 2011.89,101.2856 L2274.1097,101.2856 A3.5,3.5 0 0 0 2277.6097,97.7856 L2277.6097,67.02 L2267.6097,57.02 L2011.89,57.02 A3.5,3.5 0 0 0 2008.39,60.52 " fill="#E5E5E5" style="stroke:#191919;stroke-width:1.5;"/><path d="M2267.6097,57.02 L2267.6097,65.27 A1.75,1.75 0 0 0 2269.3597,67.02 L2277.6097,67.02 L2267.6097,57.02 " fill="#E5E5E5" style="stroke:#191919;stroke-width:1.5;"/><text fill="#191919" font-family="sans-serif" font-size="13" lengthAdjust="spacing" textLength="244.2197" x="2016.39" y="76.0869">Entry point for integration procedure,</text><text fill="#191919" font-family="sans-serif" font-size="13" lengthAdjust="spacing" textLength="230.8579" x="2016.39" y="91.2197">leverages SystemIntegrationHelper</text></g><g class="entity" data-entity="GMN42" data-source-line="111" data-uid="ent0043" id="entity_GMN42"><path d="M1806.04,756.97 L1806.04,794.2356 A3.5,3.5 0 0 0 1809.54,797.7356 L2042.4526,797.7356 A3.5,3.5 0 0 0 2045.9526,794.2356 L2045.9526,763.47 L2035.9526,753.47 L1809.54,753.47 A3.5,3.5 0 0 0 1806.04,756.97 " fill="#E5E5E5" style="stroke:#191919;stroke-width:1.5;"/><path d="M2035.9526,753.47 L2035.9526,761.72 A1.75,1.75 0 0 0 2037.7026,763.47 L2045.9526,763.47 L2035.9526,753.47 " fill="#E5E5E5" style="stroke:#191919;stroke-width:1;"/><text fill="#191919" font-family="sans-serif" font-size="13" lengthAdjust="spacing" textLength="199.4243" x="1814.04" y="772.5369">Extends CommonDataFetcher,</text><text fill="#191919" font-family="sans-serif" font-size="13" lengthAdjust="spacing" textLength="214.9126" x="1814.04" y="787.6697">customizes data fetching for SAP</text></g><g class="entity" data-entity="GMN45" data-source-line="116" data-uid="ent0046" id="entity_GMN45"><path d="M2081.15,756.97 L2081.15,794.2356 A3.5,3.5 0 0 0 2084.65,797.7356 L2337.3419,797.7356 A3.5,3.5 0 0 0 2340.8419,794.2356 L2340.8419,763.47 L2330.8419,753.47 L2084.65,753.47 A3.5,3.5 0 0 0 2081.15,756.97 " fill="#E5E5E5" style="stroke:#191919;stroke-width:1.5;"/><path d="M2330.8419,753.47 L2330.8419,761.72 A1.75,1.75 0 0 0 2332.5919,763.47 L2340.8419,763.47 L2330.8419,753.47 " fill="#E5E5E5" style="stroke:#191919;stroke-width:1;"/><text fill="#191919" font-family="sans-serif" font-size="13" lengthAdjust="spacing" textLength="234.6919" x="2089.15" y="772.5369">Prepares SAP-specific request body,</text><text fill="#191919" font-family="sans-serif" font-size="13" lengthAdjust="spacing" textLength="164.125" x="2089.15" y="787.6697">validates data as needed</text></g><!--reverse link IDataFetcher to CommonDataFetcher--><g class="link" data-entity-1="IDataFetcher" data-entity-2="CommonDataFetcher" data-source-line="73" data-uid="lnk19" id="link_IDataFetcher_CommonDataFetcher"><path codeLine="73" d="M458.0725,653.7768 C421.1925,678.9468 385.2,703.51 345.1,730.87 " fill="none" id="IDataFetcher-backto-CommonDataFetcher" style="stroke:#191919;stroke-width:1;stroke-dasharray:7.0,7.0;"/><polygon fill="none" points="472.94,643.63,454.6902,648.821,461.4548,658.7326,472.94,643.63" style="stroke:#191919;stroke-width:1;"/></g><!--reverse link CommonDataFetcher to SAPDataFetcher--><g class="link" data-entity-1="CommonDataFetcher" data-entity-2="SAPDataFetcher" data-source-line="74" data-uid="lnk20" id="link_CommonDataFetcher_SAPDataFetcher"><path codeLine="74" d="M558.54,775.6 C626.97,775.6 677.4,775.6 745.84,775.6 " fill="none" id="CommonDataFetcher-backto-SAPDataFetcher" style="stroke:#191919;stroke-width:1;"/><polygon fill="none" points="540.54,775.6,558.54,781.6,558.54,769.6,540.54,775.6" style="stroke:#191919;stroke-width:1;"/></g><!--link SAPDataFetcher to CommonDataFetcher--><g class="link" data-entity-1="SAPDataFetcher" data-entity-2="CommonDataFetcher" data-source-line="85" data-uid="lnk29" id="link_SAPDataFetcher_CommonDataFetcher"><path codeLine="85" d="M746.07,775.6 C680.3,775.6 614.06,775.6 546.53,775.6 " fill="none" id="SAPDataFetcher-to-CommonDataFetcher" style="stroke:#191919;stroke-width:1;"/><polygon fill="#191919" points="540.53,775.6,549.53,779.6,545.53,775.6,549.53,771.6,540.53,775.6" style="stroke:#191919;stroke-width:1;"/><text fill="#000000" font-family="sans-serif" font-size="13" lengthAdjust="spacing" textLength="166.0356" x="560.26" y="766.6669">calls fetchCommonData()</text></g><!--reverse link IRequestBodyPreparer to SAPRequestBodyPreparer--><g class="link" data-entity-1="IRequestBodyPreparer" data-entity-2="SAPRequestBodyPreparer" data-source-line="75" data-uid="lnk21" id="link_IRequestBodyPreparer_SAPRequestBodyPreparer"><path codeLine="75" d="M1504,661.44 C1504,686.68 1504,703.61 1504,731.07 " fill="none" id="IRequestBodyPreparer-backto-SAPRequestBodyPreparer" style="stroke:#191919;stroke-width:1;stroke-dasharray:7.0,7.0;"/><polygon fill="none" points="1504,643.44,1498,661.44,1510,661.44,1504,643.44" style="stroke:#191919;stroke-width:1;"/></g><!--reverse link IDataValidator to SAPRequestBodyPreparer--><g class="link" data-entity-1="IDataValidator" data-entity-2="SAPRequestBodyPreparer" data-source-line="76" data-uid="lnk22" id="link_IDataValidator_SAPRequestBodyPreparer"><path codeLine="76" d="M1114.4643,649.245 C1192.6943,674.425 1283.32,703.59 1368.25,730.92 " fill="none" id="IDataValidator-backto-SAPRequestBodyPreparer" style="stroke:#191919;stroke-width:1;stroke-dasharray:7.0,7.0;"/><polygon fill="none" points="1097.33,643.73,1112.626,654.9565,1116.3026,643.5336,1097.33,643.73" style="stroke:#191919;stroke-width:1;"/></g><!--reverse link Callable to IntegrationProcedureUtility--><g class="link" data-entity-1="Callable" data-entity-2="IntegrationProcedureUtility" data-source-line="77" data-uid="lnk23" id="link_Callable_IntegrationProcedureUtility"><path codeLine="77" d="M2009.9117,556.7899 C2008.2517,506.8799 2002.06,428.46 1975,351.71 C1944.45,265.09 1926.54,245.89 1869,174.3 C1851.37,152.37 1828.75,130.65 1809.48,113.61 " fill="none" id="Callable-backto-IntegrationProcedureUtility" style="stroke:#191919;stroke-width:1;stroke-dasharray:7.0,7.0;"/><polygon fill="none" points="2010.51,574.78,2015.9083,556.5905,2003.915,556.9894,2010.51,574.78" style="stroke:#191919;stroke-width:1;"/></g><!--link DataFetcherFactory to IDataFetcher--><g class="link" data-entity-1="DataFetcherFactory" data-entity-2="IDataFetcher" data-source-line="80" data-uid="lnk24" id="link_DataFetcherFactory_IDataFetcher"><path codeLine="80" d="M690.7,467.47 C653.69,498.33 603.748,539.9773 566.778,570.8073 " fill="none" id="DataFetcherFactory-to-IDataFetcher" style="stroke:#191919;stroke-width:1;"/><polygon fill="#191919" points="562.17,574.65,571.6438,571.9579,566.01,571.4478,566.5202,565.814,562.17,574.65" style="stroke:#191919;stroke-width:1;"/><text fill="#000000" font-family="sans-serif" font-size="13" lengthAdjust="spacing" textLength="59.96" x="654" y="514.0769">produces</text></g><!--link RequestBodyPreparerFactory to IRequestBodyPreparer--><g class="link" data-entity-1="RequestBodyPreparerFactory" data-entity-2="IRequestBodyPreparer" data-source-line="81" data-uid="lnk25" id="link_RequestBodyPreparerFactory_IRequestBodyPreparer"><path codeLine="81" d="M1220.68,467.47 C1282.83,498.33 1369.066,541.1516 1431.156,571.9816 " fill="none" id="RequestBodyPreparerFactory-to-IRequestBodyPreparer" style="stroke:#191919;stroke-width:1;"/><polygon fill="#191919" points="1436.53,574.65,1430.2479,567.0648,1432.0517,572.4263,1426.6901,574.2301,1436.53,574.65" style="stroke:#191919;stroke-width:1;"/><text fill="#000000" font-family="sans-serif" font-size="13" lengthAdjust="spacing" textLength="59.96" x="1320" y="514.0769">produces</text></g><!--link SystemIntegrationHelper to DataFetcherFactory--><g class="link" data-entity-1="SystemIntegrationHelper" data-entity-2="DataFetcherFactory" data-source-line="82" data-uid="lnk26" id="link_SystemIntegrationHelper_DataFetcherFactory"><path codeLine="82" d="M1071.81,290.01 C1027.77,308.23 972.39,331.18 923,351.71 C886.31,366.97 851.2359,381.5961 816.8559,395.9661 " fill="none" id="SystemIntegrationHelper-to-DataFetcherFactory" style="stroke:#191919;stroke-width:1;"/><polygon fill="#191919" points="811.32,398.28,821.1664,398.4998,815.9332,396.3518,818.0813,391.1186,811.32,398.28" style="stroke:#191919;stroke-width:1;"/><text fill="#000000" font-family="sans-serif" font-size="13" lengthAdjust="spacing" textLength="29.7832" x="995" y="337.7769">uses</text></g><!--link SystemIntegrationHelper to RequestBodyPreparerFactory--><g class="link" data-entity-1="SystemIntegrationHelper" data-entity-2="RequestBodyPreparerFactory" data-source-line="83" data-uid="lnk27" id="link_SystemIntegrationHelper_RequestBodyPreparerFactory"><path codeLine="83" d="M1153,289.85 C1153,320.97 1153,361.11 1153,392.28 " fill="none" id="SystemIntegrationHelper-to-RequestBodyPreparerFactory" style="stroke:#191919;stroke-width:1;"/><polygon fill="#191919" points="1153,398.28,1157,389.28,1153,393.28,1149,389.28,1153,398.28" style="stroke:#191919;stroke-width:1;"/><text fill="#000000" font-family="sans-serif" font-size="13" lengthAdjust="spacing" textLength="29.7832" x="1156" y="337.7769">uses</text></g><!--link IntegrationProcedureUtility to SystemIntegrationHelper--><g class="link" data-entity-1="IntegrationProcedureUtility" data-entity-2="SystemIntegrationHelper" data-source-line="84" data-uid="lnk28" id="link_IntegrationProcedureUtility_SystemIntegrationHelper"><path codeLine="84" d="M1650.23,113.76 C1541.24,144.6 1386.4033,188.4064 1277.4433,219.2364 " fill="none" id="IntegrationProcedureUtility-to-SystemIntegrationHelper" style="stroke:#191919;stroke-width:1;"/><polygon fill="#191919" points="1271.67,220.87,1281.4191,222.2686,1276.4811,219.5087,1279.241,214.5708,1271.67,220.87" style="stroke:#191919;stroke-width:1;"/><text fill="#000000" font-family="sans-serif" font-size="13" lengthAdjust="spacing" textLength="81.1294" x="1537" y="160.3669">delegates to</text></g><!--link RequestBodyPreparerFactory to GMN30--><g class="link" data-entity-1="RequestBodyPreparerFactory" data-entity-2="GMN30" data-source-line="89" data-uid="lnk32" id="link_RequestBodyPreparerFactory_GMN30"><path d="M1218.35,398.31 C1267.05,374.59 1336,345.22 1400.5,332.65 C1457.43,321.57 1605.64,317.06 1661.5,332.65 C1715.53,347.74 1769.5,385.78 1800.49,410.42 " fill="none" id="RequestBodyPreparerFactory-GMN30" style="stroke:#191919;stroke-width:1;stroke-dasharray:7.0,7.0;"/></g><!--link DataFetcherFactory to GMN33--><g class="link" data-entity-1="DataFetcherFactory" data-entity-2="GMN33" data-source-line="94" data-uid="lnk35" id="link_DataFetcherFactory_GMN33"><path d="M785.85,398.23 C826.73,374.56 884.86,345.28 940.5,332.65 C1032.17,311.86 1272.89,307.62 1363.5,332.65 C1418.05,347.72 1472.71,385.78 1504.12,410.41 " fill="none" id="DataFetcherFactory-GMN33" style="stroke:#191919;stroke-width:1;stroke-dasharray:7.0,7.0;"/></g><!--link SAPDataFetcher to GMN42--><g class="link" data-entity-1="SAPDataFetcher" data-entity-2="GMN42" data-source-line="111" data-uid="lnk44" id="link_SAPDataFetcher_GMN42"><path d="M1043.84,741.05 C1095.61,717.44 1168.65,688.27 1236.5,675.81 C1265.68,670.45 1741.59,669.16 1770.5,675.81 C1823.33,687.96 1874.18,727.56 1902.63,753.07 " fill="none" id="SAPDataFetcher-GMN42" style="stroke:#191919;stroke-width:1;stroke-dasharray:7.0,7.0;"/></g><!--link SAPRequestBodyPreparer to GMN45--><g class="link" data-entity-1="SAPRequestBodyPreparer" data-entity-2="GMN45" data-source-line="116" data-uid="lnk47" id="link_SAPRequestBodyPreparer_GMN45"><path d="M1611.47,730.87 C1668.36,709.58 1740.02,686.49 1806.5,675.81 C1858.94,667.38 1993.74,663.9 2045.5,675.81 C2100.6,688.48 2154.86,727.7 2185.52,753.04 " fill="none" id="SAPRequestBodyPreparer-GMN45" style="stroke:#191919;stroke-width:1;stroke-dasharray:7.0,7.0;"/></g><!--SRC=[jLPTRzCm57tFhxZiXKwq5OotQffKEYOg0QjMnklaEZUfMH87svrMjlvthfsaIVCrjB6tsBc-vzolOxynQumHOgQqznQMjoA1b2aMeq6b8P0ALcZe6nGodwr49CpMqsJch22MYUHh9Sc5KHki_E4HqtfgZ1AhZS4vbybI_45uNp59cU-B98GJZw3d2Q44ZAFsKiPlMOXmLEuTmOC788erpC-POHTe-9gesLy0xmAxjFi3gMXV6yMCaCdSO3pt9x0aAabuF85lB3tD5aEuNFr2Rix8mSvh0lnaaV2PaNk8ksm37Gfzi5PlXF5LQ9Dljpc_mjyR8lX9-jk5Gif66KMQhIiMlK3_5CoCHH5RHLXWS5eF6BVPAV8o1AP2tOMIVJd7ErkiwSfcbnkOsIgN1JlSpuh6YZtN4J2JCJLDI_aU2iCTlAoIHIkKICzi21Vg1J6IQfj5L6tEseyis2p6bl8MraMmsX0NleCGJM4oq5jDr7viKwoGQ-kLei8PMYMNFIYvHGT8nKSP-XUCKgfF8_B3_MhWI-VSZcsOvJetRV99a0mEkhn9R0WlgDkrSLhLP5_xKQLV8RvGagE_KLYO_w_HcSTfH8gR60TJi801ZiFn49RJHPN5SKKBMyyT97-wU1rLtBj_RTbwaSAwx5vXvCBJQv7gwgrIoxls3cwGqyVnkAbCNbEhJXz7ergYlLOrTnxRK-RLxfO-qxroEwEU_hJ1dsEAYOy95zHGBF5XghNa8W-uHIP6exF3ctG2gPB-nbx2FHhcZhK5NJdUfGJsR0kJ2Mpq4wTw2EMd-yRNUkZoFW4V8mofwpGOwTNco9viDi84h19egDyqnxOGtwLrPHzFCqbezyPBQ0UK2DS6PD0J2dNojPM31bLo58ZmvYRshPOOIRSxYMbYgBe8QL40deiTjG5OIAy6tCpyym23F0jFuNLad1nUxiK8zOJM7yRWY86TURWJh7uddOmX7naiVvT3D101i3ID1BVZSam7FeuXJowzNLs-itDjOzR5ls_W03udXfelbVJGSiKMfRKTXCnyI8OHtj5r5sBd1TcTm4Ef8SnxGxOjpoYBmpVQo9YUsJfBeokJVM5RTkIg3wRzcP5_ElKVwHIv20JVvtD5nXQt4EqSbcb847tqztX_0G00]--></g></svg>